# xmcd CD database file
# Copyright (C) 1995-1998 Ti Kan
#
# Track frame offsets:
#	150
#	20510
#	32442
#	46079
#	58100
#	69493
#	88128
#	103913
#	121470
#	133708
#	147728
#
# Disc length: 2150 seconds
#
# Revision: 1
# Processed by: cddbd v1.5.1PL2 Copyright (c) Steve Scherf et al.
# Submitted via: CDex 1.30
#
DISCID=a008640b
DTITLE=Buddy Hodges - Where The Eagle Flies
DYEAR=1998
DGENRE=Country
TTITLE0=Hell To Pay
TTITLE1=No Sir-ree
TTITLE2=Make Me Forget
TTITLE3=The Time I Fell In Love With You
TTITLE4=Just Two People
TTITLE5=Where The Eagle Flies
TTITLE6=I Didn't Mean To Fall In Love With YOu
TTITLE7=She Looked Like Love
TTITLE8=What You Really Mean To Me
TTITLE9=Hello-I'm Johnny Cash
TTITLE10=Living In Another World
EXTD=\n\n\nYEAR: 1998  ID3G:   2
EXTT0=
EXTT1=
EXTT2=
EXTT3=
EXTT4=
EXTT5=
EXTT6=
EXTT7=
EXTT8=
EXTT9=
EXTT10=
PLAYORDER=
